<?xml version="1.0" encoding="utf-8"?>
<!-- Generator: Adobe Illustrator 22.0.1, SVG Export Plug-In . SVG Version: 6.00 Build 0)  -->
<svg version="1.1" id="Layer_1" xmlns="http://www.w3.org/2000/svg" xmlns:xlink="http://www.w3.org/1999/xlink" x="0px" y="0px"
	 viewBox="0 0 201.4 183.5" style="enable-background:new 0 0 201.4 183.5;" xml:space="preserve">
<style type="text/css">
	.st0{fill:#4E504E;}
	.st1{fill:#FFFFFF;}
	.st2{fill:#FAFDFA;}
</style>
<g id="brain">
	<path class="st0" d="M33.2,123.3c0,0,10.8,4.8,14.4,6c3.6,1.2,3.6,1.2,3.6,1.2s-6,18-4.8,20.4s1.2,8.4,4.8,8.4s13.2-3.6,16.8-8.4
		s14.4-12,18-13.2s10.8-10.8,10.8-10.8s13.2,6,21.6,4.8c8.4-1.2,16.8-6,20.4-8.4s4.8-4.8,4.8-4.8s18,4.8,28.8-1.2s19.2-18,18-28.8
		s-6-16.8-6-16.8s-7.2-15.6-10.8-18s-13.2-12-19.2-13.2s-7.2-1.2-7.2-1.2s-8.4-10.8-15.6-10.8c-7.2,0-8.4,1.2-8.4,1.2
		s-9.6-9.6-27.6-8.4s-25.2,2.4-28.8,6s-3.6,3.6-3.6,3.6S50,33.3,46.4,35.7S34.4,46.5,32,50.1s-3.6,6-3.6,6s-8.4,6-10.8,12
		S14,83.7,15.2,89.7c1.2,6,3.6,9.6,6,12s3.6,3.6,3.6,3.6s1.2,9.6,3.6,13.2S33.2,123.3,33.2,123.3z"/>
	<path class="st1" d="M21.2,82.5c0,0,2.4-7.2,2.4-9.6s3.6-7.2,3.6-7.2s2.4,12,3.6,14.4s2.4,6,4.8,4.8c2.4-1.2,1.2-4.8,0-7.2
		c-1.2-2.4-3.6-13.2-2.4-15.6s4.8-12,7.2-13.2s8.4-6,10.8-6s8.4,2.4,7.2,7.2s-6,13.2-7.2,19.2s-1.2,13.2,0,15.6s1.2,6,1.2,6
		S44,86.1,38,89.7c-6,3.6-9.6,8.4-9.6,8.4s-4.8-3.6-6-8.4C21.2,84.9,21.2,82.5,21.2,82.5z"/>
	<path class="st1" d="M59.6,38.2c0,0,7.2,8.4,2.4,19.2c-4.8,10.8-8.4,24-4.8,30c3.6,6,14.4,14.4,21.6,15.6c7.2,1.2,18,0,21.6-1.2
		s8.4-4.8,8.4-4.8s1.2-1.2,3.6,0s2.4,2.4-1.2,4.8s-6,3.6-6,3.6s9.6,7.2,12,7.2s3.6,0,4.8,2.4s0,4.8-4.8,3.6
		c-4.8-1.2-10.8-3.6-13.2-6s-3.6-4.8-3.6-4.8s-16.8,3.6-24,1.2s-18-8.4-19.2-9.6s-12-7.2-15.6-4.8s-13.2,10.8-9.6,15.6
		c3.6,4.8,7.2,9.6,15.6,12c8.4,2.4,15.6,4.8,18-1.2s-6-9.6-12-9.6s-12-2.4-8.4-4.8s8.4-1.2,14.4,0s13.2,6,12,13.2s-3.6,8.4-7.2,9.6
		c-3.6,1.2-6,1.2-6,1.2s-1.2,15.6-2.4,16.8s-2.4,6-2.4,6s8.4-8.4,13.2-12s14.4-9.6,18-10.8s7.2-7.2,7.2-7.2s-4.8-2.4-4.8-4.8
		s3.6-3.6,10.8,1.2c7.2,4.8,22.8,7.2,27.6,4.8c4.8-2.4,12-8.4,12-8.4s-6-4.8-6-8.4s0-6,0-6s-14.4-8.4-16.8-12c-2.4-3.6-6-12-6-12
		s-8.4,0-12-1.2s-6-2.4-6-2.4s-7.2,2.4-9.6,6s-2.4,9.6-4.8,9.6c-2.4,0-6-1.2-3.6-7.2s7.2-10.8,9.6-12s2.4-1.2,2.4-1.2
		s-3.6-7.2-3.6-9.6s0-9.6-1.2-13.2S77.6,37,71.6,37C65.6,37,59.6,38.2,59.6,38.2z"/>
	<path class="st2" d="M75.2,31c0,0,10.8,7.2,10.8,10.8s1.2,15.6,2.4,19.2s8.4,10.8,12,10.8s6,0,6,0v-7.2c0,0,0-4.8,2.4-4.8
		s3.6,2.4,3.6,8.4s7.2,16.8,10.8,20.4s12,8.4,12,8.4s1.2-3.6,9.6-2.4s16.8,2.4,19.2,0s7.2-3.6,7.2-1.2s-3.6,8.4-7.2,8.4
		s-13.2,1.2-18,0s-6-1.2-7.2,0s-2.4,4.8,1.2,7.2s15.6,6,20.4,4.8s13.2-3.6,16.8-8.4c3.6-4.8,7.2-13.2,6-18s-3.6-8.4-3.6-8.4
		s-6,9.6-14.4,7.2s-12-2.4-14.4-4.8s-2.4-3.6-2.4-3.6s-10.8,4.8-15.6,2.4c-4.8-2.4-9.6-8.4-9.6-8.4s-2.4-3.6,0-4.8s3.6,0,7.2,3.6
		c3.6,3.6,9.6,6,9.6,4.8s3.6-1.2,3.6-1.2l-10.8-14.4c0,0,0-2.4,1.2-3.6s3.6-2.4,6,2.4s13.2,18,14.4,18s10.8,4.8,15.6,2.4
		s7.2-8.4,4.8-12s-8.4-10.8-14.4-14.4s-10.8-6-10.8-6s4.8,7.2,8.4,10.8s7.2,9.6,3.6,9.6s-13.2-7.2-13.2-9.6S140,44.2,140,43
		s-4.8-8.4-9.6-7.2c-4.8,1.2-9.6,2.4-10.8,4.8s0,8.4,0,8.4s0,7.2-2.4,6s-4.8-3.6-4.8-7.2s0-3.6,0-3.6s-7.2-2.4-12-2.4
		s-7.2-1.2-7.2-3.6s4.8-2.4,8.4-2.4c3.6,0,12,3.6,12,3.6l3.6-6c0,0-10.8-4.8-16.8-4.8C94.3,28.6,75.2,31,75.2,31z"/>
</g>
</svg>
