<?xml version="1.0" encoding="utf-8"?>
<!-- Generator: Adobe Illustrator 22.0.1, SVG Export Plug-In . SVG Version: 6.00 Build 0)  -->
<svg version="1.1" id="Layer_1" xmlns="http://www.w3.org/2000/svg" xmlns:xlink="http://www.w3.org/1999/xlink" x="0px" y="0px"
	 viewBox="0 0 201.4 183.5" style="enable-background:new 0 0 201.4 183.5;" xml:space="preserve">
<style type="text/css">
	.st0{fill:#E76924;}
</style>
<path id="fire" class="st0" d="M41,117c0,0,0,26.9,18.8,41.3s52,10.8,54.7,10.8s28.7-9.9,34.1-21.5s16.1-26,9-44.9
	c-7.2-18.8-18.8-35.9-21.5-41.3s-3.6-16.1-2.7-17.9s-8.1,7.2-8.1,10.8c0,3.6-0.9,10.8,0,14.4s7.2,19.7,5.4,26.9
	c-1.8,7.2-6.3,16.1-9,18.8c-2.7,2.7-2.7,2.7-2.7,2.7s4.5-8.1,3.6-17c-0.9-9-2.7-17-7.2-20.6s-9-5.4-9-5.4s4.5,6.3,4.5,9.9
	s0,10.8-4.5,12.6c-4.5,1.8-10.8,3.6-12.6-5.4s1.8-17,4.5-21.5s12.6-16.1,13.5-25.1s0-19.7-2.7-24.2s-6.3-9.9-10.8-12.6
	s-5.4-2.7-5.4-2.7s4.5,5.4,3.6,14.4s-3.6,17.9-16.1,33.2C67.8,68,58.9,76.9,57.1,85.9s-2.7,17.9,1.8,26.9s6.3,11.7,6.3,11.7
	s-9-4.5-12.6-10.8s-5.4-16.1-5.4-16.1L46.3,94C46.4,93.7,40.1,109.8,41,117z"/>
</svg>
