<?xml version="1.0" encoding="utf-8"?>
<!-- Generator: Adobe Illustrator 22.0.1, SVG Export Plug-In . SVG Version: 6.00 Build 0)  -->
<svg version="1.1" id="Layer_1" xmlns="http://www.w3.org/2000/svg" xmlns:xlink="http://www.w3.org/1999/xlink" x="0px" y="0px"
	 viewBox="0 0 201.4 183.5" style="enable-background:new 0 0 201.4 183.5;" xml:space="preserve">
<style type="text/css">
	.st0{fill:#17607B;}
</style>
<g id="team">
	<path class="st0" d="M92.3,47.2h17.9l17.9,10.9c0,0,3.9-0.8,4.7,8.5c0.8,9.3,0.8,37.3,0.8,37.3l-0.8,11.7h-10.1v60.6H82.3
		l-1.6-59.8h-8.5l-0.8-53.6c0,0,2.3-3.9,4.7-5.4C78.3,55.7,92.3,47.2,92.3,47.2z"/>
	<path class="st0" d="M45.7,52.7l18.7-0.1l-3.9,15.5c0,0-1.4,7.5-0.8,15.5c0.6,8.1,0.8,21.8,0.8,21.8l2.3,15.5l7.8,6.2l-0.3,37.3
		H37.5l-1.3-51.8h-6.9l-0.6-46.5c0,0,1.9-3.4,3.8-4.7C34.3,60.1,45.7,52.7,45.7,52.7z"/>
	<path class="st0" d="M159.6,50.1l-19-0.1l4,15.8c0,0,1.4,7.6,0.8,15.8c-0.6,8.2-0.8,22.2-0.8,22.2l-2.4,15.8l-7.9,6.3l0.3,38H168
		l1.3-52.8h7.1l0.6-47.3c0,0-1.9-3.4-3.9-4.8C171.2,57.6,159.6,50.1,159.6,50.1z"/>
	<circle class="st0" cx="103.2" cy="20.7" r="17.9"/>
	<circle class="st0" cx="54.3" cy="27.7" r="15.5"/>
	<circle class="st0" cx="149.8" cy="27.7" r="15.5"/>
</g>
</svg>
